<svg xmlns="http://www.w3.org/2000/svg" xmlns:xlink="http://www.w3.org/1999/xlink" width="24" height="24" viewBox="0 0 24 24">
    <defs>
        <filter id="8fn415i7da">
            <feColorMatrix in="SourceGraphic" values="0 0 0 0 1.000000 0 0 0 0 1.000000 0 0 0 0 1.000000 0 0 0 1.000000 0"/>
        </filter>
        <path id="srp5gmqgnb" d="M0 0.562L17.438 0.562 17.438 18 0 18z"/>
    </defs>
    <g fill="none" fill-rule="evenodd">
        <g>
            <g filter="url(#8fn415i7da)" transform="translate(-1417 -818) translate(1401 810)">
                <g>
                    <path d="M0 0H24V24H0z" transform="translate(16 8)"/>
                    <g>
                        <g transform="translate(16 8) translate(3 2.5) translate(0 .439)">
                            <mask id="bxas1owh7c" fill="#fff">
                                <use xlink:href="#srp5gmqgnb"/>
                            </mask>
                            <path fill="#000" d="M8.72.562c-.359 0-.712.023-1.058.066-.465.058-.83.423-.883.889-.052.453-.099.927-.144 1.412-.324.104-.635.236-.936.386-.373-.311-.74-.611-1.096-.894-.183-.145-.4-.216-.619-.216-.23 0-.46.078-.653.229-.564.445-1.072.957-1.51 1.525-.274.354-.243.854.036 1.204.278.35.574.712.88 1.08-.158.306-.293.626-.402.958-.474.043-.937.089-1.38.139-.466.054-.832.419-.889.884C.023 8.57 0 8.923 0 9.28s.023.71.066 1.057c.057.465.423.83.888.883.444.05.907.098 1.381.14.11.333.244.652.402.959-.306.367-.602.729-.88 1.08-.279.35-.31.85-.036 1.203.456.59.986 1.12 1.577 1.577.166.128.364.189.563.189.226 0 .454-.078.64-.225.356-.284.724-.585 1.098-.896.301.15.612.282.936.385.045.486.092.959.144 1.412.053.466.418.83.883.89.346.043.7.065 1.057.065.358 0 .711-.022 1.057-.065.465-.06.83-.424.883-.89.054-.464.102-.951.147-1.448.31-.104.61-.231.897-.38.386.323.766.634 1.134.926.186.148.414.226.64.226.2 0 .397-.061.563-.19.591-.455 1.121-.985 1.577-1.577.274-.353.242-.853-.037-1.203-.296-.374-.613-.76-.94-1.152.141-.282.264-.574.363-.876.51-.046 1.005-.095 1.48-.15.465-.053.832-.417.89-.883.042-.346.065-.7.065-1.057 0-.358-.023-.71-.066-1.057-.057-.466-.424-.83-.889-.884-.475-.053-.97-.103-1.48-.148-.099-.303-.222-.595-.363-.877.327-.392.644-.777.94-1.151.28-.35.311-.851.037-1.205-.456-.59-.986-1.12-1.577-1.577-.166-.128-.363-.19-.563-.19-.226 0-.454.079-.64.227-.368.292-.748.603-1.134.925-.287-.147-.587-.274-.897-.38-.045-.496-.093-.983-.147-1.446-.053-.467-.418-.832-.883-.89C9.43.585 9.077.562 8.72.562m0 1.5c.163 0 .328.006.493.018.035.332.07.673.1 1.02l.088.974.925.312c.24.08.472.179.695.293l.884.452.761-.635c.268-.224.533-.442.792-.652.25.217.483.45.7.698-.215.266-.439.538-.668.812l-.629.752.437.878c.114.229.21.457.281.678l.31.936.981.088c.36.032.71.065 1.052.102.011.165.017.33.017.493 0 .164-.006.329-.017.494-.342.036-.693.069-1.052.1l-.98.089-.31.937c-.073.22-.168.448-.282.678l-.437.878.63.75c.228.276.452.547.666.813-.216.248-.45.48-.699.698-.259-.21-.524-.428-.792-.651l-.76-.637-.885.452c-.223.115-.456.214-.695.294l-.925.313-.088.973c-.03.348-.065.689-.1 1.02-.165.013-.33.018-.493.018-.163 0-.328-.005-.493-.017-.034-.32-.067-.65-.097-.985l-.09-.99-.946-.302c-.232-.076-.469-.173-.724-.3l-.878-.44-.752.629c-.256.214-.51.422-.758.623-.249-.217-.483-.45-.699-.698.196-.243.4-.49.608-.74l.634-.762-.452-.883c-.125-.244-.23-.493-.312-.741l-.308-.936-.98-.09c-.325-.03-.644-.061-.954-.093-.012-.165-.018-.33-.018-.494 0-.163.006-.328.018-.493.31-.034.63-.064.953-.094l.981-.09.308-.936c.081-.248.187-.498.312-.741l.452-.883-.634-.761c-.208-.25-.412-.497-.608-.741.216-.248.45-.481.7-.698.247.2.501.409.757.623l.752.628.878-.438c.255-.127.492-.225.724-.3l.946-.303.09-.99c.03-.335.063-.664.097-.984.165-.012.33-.018.493-.018" mask="url(#bxas1owh7c)"/>
                        </g>
                        <path fill="#000" d="M8.72 6.667c-1.687 0-3.053 1.366-3.053 3.052s1.366 3.052 3.052 3.052 3.053-1.366 3.053-3.052-1.367-3.052-3.053-3.052m0 1.5c.855 0 1.553.696 1.553 1.552 0 .856-.698 1.552-1.553 1.552s-1.552-.696-1.552-1.552c0-.856.697-1.552 1.552-1.552" transform="translate(16 8) translate(3 2.5)"/>
                    </g>
                </g>
            </g>
        </g>
    </g>
</svg>
