<svg xmlns="http://www.w3.org/2000/svg" width="34" height="18" viewBox="0 0 34 18">
    <g fill="none" fill-rule="evenodd">
        <g>
            <g>
                <g>
                    <path stroke="#9C9C9C" d="M29.008 3.936V1.651c0-.701-.582-1.27-1.3-1.27H1.69C.972.38.391.95.391 1.65v12.698c0 .701.581 1.27 1.3 1.27h26.016c.719 0 1.301-.569 1.301-1.27v-2.285h1.301c.718 0 1.3-.569 1.3-1.27V5.207c0-.702-.582-1.27-1.3-1.27h-1.3z" transform="translate(-172 -633) translate(173 626) translate(0 8)"/>
                    <path fill="#FFF" d="M2.4 1.6H7.4V14.4H2.4z" transform="translate(-172 -633) translate(173 626) translate(0 8)"/>
                    <path fill="#FFF" d="M26.504 1.392H2.914c-.67 0-1.212.53-1.212 1.185v10.837c0 .654.543 1.185 1.212 1.185h23.59c.67 0 1.214-.53 1.214-1.185V2.577c0-.655-.544-1.185-1.214-1.185m0 .762c.24 0 .434.19.434.423v10.837c0 .233-.195.423-.434.423H2.914c-.238 0-.431-.19-.431-.423V2.577c0-.234.193-.423.431-.423h23.59" transform="translate(-172 -633) translate(173 626) translate(0 8)"/>
                </g>
            </g>
        </g>
    </g>
</svg>
