<svg xmlns="http://www.w3.org/2000/svg" xmlns:xlink="http://www.w3.org/1999/xlink" width="24" height="24" viewBox="0 0 24 24">
    <defs>
        <filter id="vu6o6t2uka">
            <feColorMatrix in="SourceGraphic" values="0 0 0 0 1.000000 0 0 0 0 1.000000 0 0 0 0 1.000000 0 0 0 1.000000 0"/>
        </filter>
        <path id="ll18x7jf1b" d="M0 0.814L14.952 0.814 14.952 15 0 15z"/>
    </defs>
    <g fill="none" fill-rule="evenodd">
        <g>
            <g filter="url(#vu6o6t2uka)" transform="translate(-1417 -878) translate(1401 870)">
                <g>
                    <path d="M0 0H24V24H0z" transform="translate(16 8)"/>
                    <g>
                        <path fill="#000" d="M7.476 8c-.414 0-.75-.336-.75-.75V.75c0-.414.336-.75.75-.75s.75.336.75.75v6.5c0 .414-.336.75-.75.75" transform="translate(16 8) translate(4.5 4)"/>
                        <g transform="translate(16 8) translate(4.5 4) translate(0 1)">
                            <mask id="4y3ym87ckc" fill="#fff">
                                <use xlink:href="#ll18x7jf1b"/>
                            </mask>
                            <path fill="#000" d="M9.867 1.296c-.133.348.006.748.338.919 2.268 1.169 3.698 3.742 3.118 6.568-.465 2.265-2.29 4.102-4.551 4.58-3.858.816-7.272-2.12-7.272-5.838 0-2.316 1.325-4.323 3.256-5.314.328-.17.46-.571.329-.916C4.922.87 4.424.693 4.02.904 1.208 2.377-.561 5.58.162 9.099c.59 2.875 2.916 5.18 5.795 5.75 4.785.948 8.995-2.706 8.995-7.324 0-2.878-1.637-5.376-4.027-6.625-.4-.208-.896-.026-1.058.396" mask="url(#4y3ym87ckc)"/>
                        </g>
                    </g>
                </g>
            </g>
        </g>
    </g>
</svg>
