<svg xmlns="http://www.w3.org/2000/svg" width="24" height="24" viewBox="0 0 24 24">
    <defs>
        <filter id="pkxg9ylkya">
            <feColorMatrix in="SourceGraphic" values="0 0 0 0 1.000000 0 0 0 0 1.000000 0 0 0 0 1.000000 0 0 0 1.000000 0"/>
        </filter>
    </defs>
    <g fill="none" fill-rule="evenodd">
        <g>
            <g filter="url(#pkxg9ylkya)" transform="translate(-1530 -162) translate(1401 146)">
                <g>
                    <path d="M0 0L24 0 24 20.654 24 24 0 24z" transform="translate(129 16)"/>
                    <g>
                        <g stroke="#000" stroke-linecap="round" stroke-width="1.5">
                            <path d="M9 4L0 4M10 4L6.5 0M10 4L6.5 8" transform="translate(129 16) translate(4.5 4) translate(5 4)"/>
                        </g>
                        <path fill="#000" fill-rule="nonzero" d="M8.75 0c.38 0 .693.282.743.648L9.5.75v4.036c0 .414-.336.75-.75.75-.38 0-.693-.282-.743-.649L8 4.786V1.5H1.5v13H8v-3.286c0-.38.282-.693.648-.743l.102-.007c.38 0 .693.282.743.649l.007.101v4.036c0 .38-.282.693-.648.743L8.75 16h-8c-.38 0-.693-.282-.743-.648L0 15.25V.75C0 .37.282.057.648.007L.75 0h8z" transform="translate(129 16) translate(4.5 4)"/>
                    </g>
                </g>
            </g>
        </g>
    </g>
</svg>
