<svg xmlns="http://www.w3.org/2000/svg" width="32" height="32" viewBox="0 0 32 32">
    <g fill="none" fill-rule="evenodd">
        <g>
            <g>
                <g fill="#646464">
                    <path d="M18.128 24.177c0 1.19-.94 2.155-2.102 2.155-1.161 0-2.102-.964-2.102-2.155 0-1.19.94-2.153 2.102-2.153s2.102.964 2.102 2.153zM24.082 14.713c.77.921 1.462.976 2.36.186.899-.79.951-1.499.182-2.42-5.585-6.677-15.663-6.677-21.247 0-.77.921-.718 1.63.181 2.42s1.59.735 2.36-.186c4.248-5.08 11.916-5.08 16.164 0z" transform="translate(-362 -178) translate(362 178) translate(0 2.8)"/>
                    <path d="M28.53 9.738c.77.921 1.462.976 2.36.186.9-.79.951-1.499.182-2.42-7.923-9.472-22.221-9.472-30.143 0-.771.921-.718 1.63.18 2.42.9.79 1.59.735 2.362-.186 6.586-7.876 18.473-7.876 25.059 0zM19.634 19.688c.77.921 1.461.976 2.36.186.899-.79.951-1.499.182-2.42-3.246-3.881-9.105-3.881-12.35 0-.772.921-.718 1.63.18 2.42.899.79 1.59.735 2.36-.186 1.911-2.283 5.358-2.283 7.268 0z" transform="translate(-362 -178) translate(362 178) translate(0 2.8)"/>
                </g>
                <path fill="#FFF" d="M16-4.8c.442 0 .8.358.8.8v40c0 .442-.358.8-.8.8-.442 0-.8-.358-.8-.8V-4c0-.442.358-.8.8-.8z" transform="translate(-362 -178) translate(362 178) rotate(45 16 16)"/>
            </g>
        </g>
    </g>
</svg>
