<svg xmlns="http://www.w3.org/2000/svg" width="32" height="32" viewBox="0 0 32 32">
    <g fill="none" fill-rule="evenodd">
        <g>
            <g>
                <g>
                    <path d="M0 0H29.091V29.091H0z" transform="translate(-362 -242) translate(362 242) translate(1.455 1.455)"/>
                    <path fill="#646464" d="M26.92.727H2.17c-.798 0-1.444.647-1.444 1.444V26.92c0 .798.646 1.444 1.444 1.444h6.847v-9.312c0-.643.777-.965 1.232-.51l3.274 3.274c.564.564 1.478.564 2.041 0l3.276-3.274c.454-.455 1.232-.133 1.232.51v9.312h6.847c.797 0 1.444-.646 1.444-1.444V2.171c0-.797-.647-1.444-1.444-1.444z" transform="translate(-362 -242) translate(362 242) translate(1.455 1.455)"/>
                </g>
                <path fill="#FFF" d="M16-5.818c.402 0 .727.325.727.727v42.182c0 .402-.325.727-.727.727-.402 0-.727-.325-.727-.727V-5.091c0-.402.325-.727.727-.727z" transform="translate(-362 -242) translate(362 242) rotate(45 16 16)"/>
            </g>
        </g>
    </g>
</svg>
