<svg xmlns="http://www.w3.org/2000/svg" xmlns:xlink="http://www.w3.org/1999/xlink" width="32" height="32" viewBox="0 0 32 32">
    <defs>
        <filter id="pehwxdenuc">
            <feColorMatrix in="SourceGraphic" values="0 0 0 0 0.611781 0 0 0 0 0.611781 0 0 0 0 0.611781 0 0 0 1.000000 0"/>
        </filter>
        <path id="owwtpfjlia" d="M0 0.419L20.752 0.419 20.752 27.218 0 27.218z"/>
    </defs>
    <g fill="none" fill-rule="evenodd">
        <g>
            <g>
                <g>
                    <path d="M0 0H29.091V29.091H0z" transform="translate(-362 -306) translate(362 306) translate(1.455 1.455)"/>
                    <g>
                        <g transform="translate(-362 -306) translate(362 306) translate(1.455 1.455) translate(4.364 .727)">
                            <mask id="w0sje0khzb" fill="#fff">
                                <use xlink:href="#owwtpfjlia"/>
                            </mask>
                            <path fill="#646464" d="M10.518 3.703c.112-.398.256-.754.44-1.093.233-.423.52-.8.876-1.124.17-.155.363-.235.593-.199.052.008.081-.01.115-.044.125-.13.258-.25.407-.351.2-.136.412-.17.639-.085.047.017.078.015.12-.015.117-.08.244-.147.381-.19.161-.053.32-.044.472.025.062.028.105.02.162-.008.194-.093.39-.188.614-.19.14 0 .27.034.382.118.054.04.1.04.162.023.134-.036.27-.068.407-.09.227-.037.43.022.598.183.04.04.075.051.133.044.294-.037.575-.018.787.228.028.033.06.019.091.016.244-.023.484.005.72.067.16.041.293.134.382.277.035.054.069.08.14.068.194-.029.386-.033.565.072.338.2.446.621.242.956-.019.031-.066.055-.018.11.251.283.234.605.039.913-.063.1-.085.181-.05.298.056.193.006.377-.106.543-.02.028-.035.057-.059.08-.127.132-.21.266-.163.471.036.158-.045.31-.148.436-.039.048-.08.097-.127.136-.115.094-.185.194-.173.36.01.167-.084.309-.205.424-.13.123-.272.235-.422.333-.035.022-.077.039-.08.095-.021.303-.201.493-.455.63-.042.023-.082.05-.126.065-.173.065-.31.153-.381.346-.064.17-.236.255-.406.315-.149.053-.3.1-.455.13-.025.005-.05.016-.075.016-.047.001-.065.036-.072.07-.006.038.035.04.059.053.435.25.824.562 1.15.945.563.66.888 1.427 1 2.284.025.18.016.367.03.55.016.212.103.401.274.523.811.577 1.364 1.336 1.631 2.294.152.541.183 1.096.097 1.656-.114.755-.409 1.425-.893 2.014-.068.081-.106.17-.126.274-.053.274-.123.544-.212.807-.073.217-.115.434-.125.664-.048 1.136-.475 2.114-1.265 2.93-.496.512-1.085.883-1.763 1.104-.178.057-.316.167-.461.27-.608.43-1.257.782-1.947 1.06-.06.023-.108.053-.15.103-.58.671-1.3 1.125-2.15 1.37-.527.15-1.07.186-1.614.129-1.107-.118-2.037-.595-2.79-1.412-.08-.086-.178-.113-.274-.15-.865-.334-1.662-.788-2.395-1.355-.058-.045-.121-.08-.189-.11-1.068-.451-1.835-1.218-2.328-2.26-.18-.381-.3-.787-.353-1.209-.021-.167-.108-.311-.168-.465-.178-.458-.322-.926-.429-1.406-.014-.06-.037-.106-.077-.154-.712-.854-1.063-1.831-.985-2.948.09-1.295.678-2.316 1.72-3.08.045-.032.064-.078.094-.118.18-.24.161-.518.173-.795.036-.863.316-1.642.83-2.336.418-.565.943-1 1.593-1.312-.196-.057-.376-.102-.547-.178-.185-.083-.313-.218-.375-.409-.021-.068-.058-.101-.12-.124-.168-.062-.328-.145-.475-.25-.166-.12-.271-.278-.29-.484-.006-.07-.037-.112-.094-.147-.14-.088-.268-.192-.391-.303-.17-.152-.253-.34-.238-.568.003-.057-.011-.093-.054-.132-.079-.071-.155-.146-.224-.227-.151-.176-.203-.38-.151-.605.015-.067-.001-.108-.042-.157-.136-.162-.28-.319-.312-.545-.015-.11-.001-.214.033-.313.02-.06.011-.102-.022-.15-.065-.09-.115-.188-.152-.293-.086-.25-.041-.477.129-.677.038-.046.038-.071.007-.12-.151-.239-.159-.487-.01-.727.152-.248.383-.351.673-.323.058.006.116.01.175.018.033.004.053-.003.071-.034.158-.272.424-.342.709-.373.146-.016.292-.03.44-.007.024.003.05.007.07-.017.211-.247.492-.268.785-.23.065.008.1-.01.143-.049.172-.163.379-.213.61-.176.058.01.116.019.173.036.18.056.344.078.524-.041.135-.09.312-.06.47-.012.047.013.094.025.134.047.191.1.372.14.597.07.234-.072.448.07.643.198.06.038.103.042.168.018.204-.07.4-.04.58.074.162.102.304.232.436.37.036.036.069.053.123.044.214-.031.4.034.559.175.413.365.73.801.977 1.29.15.296.27.602.365.952" mask="url(#w0sje0khzb)"/>
                        </g>
                        <g filter="url(#pehwxdenuc)" transform="translate(-362 -306) translate(362 306) translate(1.455 1.455) translate(4.364 .727)">
                            <g>
                                <path fill="#9C9C9C" d="M5.98.575c.27.132.467.35.656.576.068.083.099.085.166.002.06-.073.078-.157.066-.248C6.86.852 6.849.8 6.837.73c.2.133.35.292.496.456.114.13.225.26.33.398.051.07.072.045.104-.012.053-.094.079-.196.088-.321.12.086.21.185.297.284.475.548.793 1.178.915 1.889.125.726-.209 1.232-.838 1.547-.049.023-.08.012-.118-.02-1.148-.969-2.458-1.66-3.83-2.246-.397-.17-.8-.326-1.214-.458-.042.011-.073-.02-.11-.03-.014-.003-.024-.013-.039-.01.015.002.03.01.044.014.035.017.076.025.105.055.971.482 1.91 1.02 2.805 1.631.635.432 1.242.898 1.774 1.458.091.096.1.177.056.292-.215.566-.61.956-1.168 1.174-.588.23-1.199.365-1.835.356-.112-.002-.224-.015-.341-.043.067-.035.135-.066.197-.106.068-.042.16-.096.135-.18-.02-.07-.124-.078-.2-.078-.259 0-.513-.026-.765-.076-.14-.027-.276-.07-.438-.133.07-.02.113-.03.156-.043.075-.02.145-.05.204-.104.024-.021.058-.046.052-.079-.007-.036-.05-.038-.08-.046-.312-.085-.623-.17-.92-.3-.085-.037-.167-.074-.251-.146.12-.011.228 0 .33-.039.057-.022.144-.036.149-.096.006-.065-.085-.066-.134-.09-.324-.149-.637-.317-.92-.537-.048-.037-.094-.078-.167-.14.17.035.31.052.445-.002.035-.014.091-.013.094-.06.002-.039-.047-.051-.077-.07-.289-.182-.568-.38-.81-.625l-.09-.097c.058.007.095.012.132.015.059.005.118.016.175.011.075-.006.176-.005.203-.079.02-.051-.075-.087-.12-.127-.259-.228-.51-.465-.726-.763l.233.051c.087.019.175.012.262-.003.037-.007.094 0 .102-.044.01-.049-.01-.098-.058-.134-.102-.078-.203-.158-.299-.242-.166-.145-.318-.304-.42-.523.162.023.312.042.465.042.082 0 .098-.021.072-.101-.103-.316-.24-.612-.474-.882.432.024.842.032 1.265-.026-.095-.13-.205-.221-.323-.33.19-.059.37-.056.552-.041.235.02.463.075.686.152.057.02.126.044.165-.002.046-.051.025-.125-.003-.187-.047-.1-.137-.15-.25-.206.145-.025.264-.003.383.022.223.048.439.118.653.197.051.019.112.051.152 0 .034-.044.015-.105-.008-.158C4.043.64 3.963.576 3.88.514 3.855.496 3.819.491 3.798.447c.395.05.747.188 1.08.388.037.023.073.08.123.037.05-.04.07-.101.06-.168C5.04.579 4.949.5 4.855.399c.205.045.367.138.525.238.149.094.286.204.416.324.084.078.109.07.159-.034.052-.109.066-.218-.003-.325-.004-.022.003-.035.028-.027M14.438.445c-.042.052-.086.1-.123.155-.037.053-.046.115-.033.179.022.104.07.125.16.068.311-.197.65-.32 1.01-.394.024-.005.05-.005.102-.01-.067.05-.113.081-.157.117-.066.054-.126.115-.155.197-.017.049-.034.106.005.146.037.035.09.016.136-.002.19-.072.38-.134.577-.182.15-.036.3-.065.461-.05-.019.036-.055.038-.081.054-.07.043-.132.093-.165.171-.023.057-.04.122-.003.169.04.052.104.03.163.011.36-.119.729-.199 1.114-.145.043.006.085.01.13.038-.115.095-.22.195-.324.322.423.062.834.05 1.267.027-.229.267-.366.56-.47.87-.028.084-.024.119.078.114.146-.006.292-.012.447-.046-.037.126-.11.214-.185.302-.147.17-.32.313-.498.449-.02.015-.043.029-.057.048-.057.077-.035.128.057.146.17.034.334.008.515-.059-.107.166-.226.293-.347.417-.144.148-.295.287-.453.418-.024.02-.068.036-.054.074.01.03.05.04.081.05.124.043.247.025.37.001.013-.002.028-.01.045.014-.153.175-.33.325-.522.461-.125.089-.255.17-.385.255-.024.016-.054.03-.052.064.003.031.038.031.06.04.144.066.296.057.475.014-.23.217-.467.365-.717.497-.149.079-.301.15-.455.22-.07.032-.064.06-.008.096.13.08.277.091.435.082-.027.057-.075.07-.114.091-.322.167-.67.26-1.017.355-.04.011-.104.01-.112.053-.01.048.045.079.083.106.088.066.195.083.315.117-.11.066-.22.09-.326.115-.269.064-.54.098-.818.098-.055 0-.109.003-.162.024-.113.042-.124.08-.037.167.08.082.185.123.316.182-.239.043-.446.046-.653.03-.586-.042-1.156-.166-1.69-.412-.512-.234-.863-.625-1.046-1.161-.03-.087-.017-.148.046-.216.415-.446.881-.83 1.373-1.186 1-.726 2.065-1.347 3.17-1.9l.058-.03c.034-.033.079-.044.12-.063.02-.007.042-.011.06-.023-.023.01-.046.017-.07.026-.037.01-.069.04-.112.033-.598.19-1.177.43-1.747.691-.835.381-1.642.814-2.402 1.332-.304.207-.598.426-.875.666-.055.048-.097.05-.155.021-.66-.317-.966-.93-.798-1.647.177-.754.52-1.423 1.08-1.97.03-.029.057-.067.11-.08.019.11.037.217.093.314.04.068.063.06.107.003.216-.278.44-.549.715-.773.028-.024.052-.052.099-.062-.008.066-.017.128-.02.19-.004.054-.002.11.024.161.065.136.13.144.224.032.183-.216.375-.422.634-.552.026-.007.033.005.03.029-.07.108-.055.215-.002.324.052.105.072.11.158.032.21-.19.437-.357.694-.478.057-.026.114-.052.175-.063.026-.009.032.005.028.026M8.745 14.823c-.177.375-.419.706-.7 1.01-.43.465-.945.801-1.56.963-.712.187-1.402.119-2.035-.272-.778-.478-1.156-1.204-1.198-2.098-.058-1.215.423-2.205 1.34-2.988.374-.32.8-.548 1.28-.661 1.01-.24 1.89-.006 2.582.78.379.43.557.96.607 1.53.007.072.009.146.013.22-.026.523-.101 1.037-.33 1.516zM12.626 10.58c.746.022 1.383.292 1.943.754.774.639 1.227 1.465 1.355 2.454.092.718-.03 1.408-.457 2.015-.24.34-.546.605-.943.764-.265.106-.532.206-.815.204-.456-.004-.899-.072-1.323-.267-.596-.274-1.05-.703-1.45-1.206-.086-.11-.14-.24-.208-.362-.27-.491-.446-1.003-.468-1.575-.02-.484.03-.947.23-1.385.422-.914 1.146-1.37 2.136-1.397M9.74 16.307c.65.046 1.275.177 1.813.58.321.242.594.52.807.873.23.38.346.785.37 1.217.025.475-.08.927-.311 1.345-.534.974-1.382 1.47-2.464 1.586-.891.095-1.69-.155-2.372-.732-.55-.464-.874-1.071-.935-1.788-.044-.515.043-1.016.31-1.485.23-.408.516-.756.904-1.016.442-.296.929-.482 1.459-.552.138-.017.277-.03.419-.028M17.66 19.239c-.002.948-.283 1.72-.831 2.39-.434.528-.983.897-1.63 1.12-.367.127-.744.191-1.132.201-.592.014-.984-.375-1.062-.938-.076-.563.031-1.092.23-1.613.29-.755.736-1.41 1.302-1.979.34-.34.708-.659 1.162-.856.298-.131.608-.206.93-.174.397.04.665.274.802.645.15.412.244.838.229 1.204M6.153 21.568c-.008.29-.029.52-.096.743-.088.293-.485.607-.795.634-.503.041-.978-.07-1.432-.274-1.185-.528-1.902-1.435-2.15-2.707-.089-.458-.086-.92.02-1.377.097-.41.338-.696.753-.787.276-.061.563-.03.835.059.509.165.944.454 1.318.83.397.396.78.809 1.032 1.32.06.12.124.24.186.36.202.394.267.826.329 1.199M9.59 7.227c1.035.02 1.901.407 2.585 1.188.181.207.258.45.248.72-.003.098-.043.186-.092.269-.17.292-.415.495-.72.652-.544.278-1.123.384-1.72.398-.782.016-1.54-.104-2.239-.49-.314-.174-.578-.395-.717-.731-.127-.31-.063-.602.144-.856.398-.485.916-.792 1.505-.99.326-.108.662-.162 1.007-.16M9.61 25.659c-1.149-.027-2.09-.476-2.81-1.38-.177-.224-.145-.47.075-.674.392-.362.879-.517 1.385-.628.507-.111 1.023-.16 1.54-.156.793.008 1.573.112 2.305.445.183.082.327.22.43.383.097.155.069.336-.038.487-.386.545-.882.956-1.495 1.227-.442.196-.906.291-1.392.296M2.305 14.131c.008.457-.038.908-.133 1.355-.062.29-.093.588-.206.864-.09.225-.136.466-.255.68-.091.165-.184.338-.324.465-.203.184-.334.199-.508.009-.474-.515-.773-1.113-.853-1.811-.142-1.236.296-2.235 1.261-3.009.114-.091.233-.178.372-.234.136-.055.209-.021.308.082.236.242.26.556.303.863.033.244.04.49.035.736M16.738 13.793c-.024-.26.005-.557.057-.856.032-.181.082-.356.16-.523.06-.128.206-.18.332-.115.554.282.992.69 1.308 1.223.691 1.164.592 2.586-.252 3.66-.06.078-.126.152-.192.226-.21.231-.3.198-.49-.017-.204-.231-.335-.51-.44-.805-.216-.61-.33-1.238-.413-1.875-.038-.29-.089-.58-.07-.918M13.588 7.82c.428-.008.839.071 1.237.226.48.186.896.466 1.247.84.468.5.756 1.085.876 1.757.048.27.059.54.046.812-.005.135-.025.143-.154.148-.21.006-.373-.118-.536-.208-.414-.232-.826-.475-1.176-.804-.107-.102-.242-.166-.357-.257-.525-.421-1.007-.888-1.467-1.378-.193-.205-.385-.413-.545-.644-.056-.08-.088-.167-.105-.264-.014-.073.017-.11.084-.128.278-.072.563-.098.85-.1M1.992 11.185c.075-1.408.712-2.461 2-3.07.704-.333 1.452-.396 2.214-.205.124.031.15.09.1.21-.155.381-.431.679-.714.962-.632.633-1.316 1.205-2.038 1.732-.295.215-.615.396-.936.572-.111.06-.237.096-.356.144-.074.03-.145.009-.217-.006-.047-.009-.05-.052-.052-.087-.003-.084 0-.168 0-.252" transform="translate(.85 .712)"/>
                                <path fill="#323526" d="M16.394 2.227c-.042.016-.084.032-.126.05 0-.01 0-.02-.002-.028.031-.029.073-.031.11-.044.022-.005.03.002.018.022" transform="translate(.85 .712)"/>
                                <path fill="#333B26" d="M2.957 2.204l.11.043v.028l-.11-.044c-.005-.006-.008-.012-.006-.018.002-.006.004-.01.006-.01" transform="translate(.85 .712)"/>
                                <path fill="#546F3F" d="M13.385.604l-.03-.028c.02-.022.042-.037.075-.035.004.036-.026.046-.045.063" transform="translate(.85 .712)"/>
                                <path fill="#587642" d="M5.98.575l-.028.027-.06-.054c.045-.015.066.007.088.027" transform="translate(.85 .712)"/>
                                <path fill="#56733E" d="M14.438.445L14.41.42c.019-.017.046-.04.064-.017.014.02-.018.032-.036.043" transform="translate(.85 .712)"/>
                                <path fill="#587141" d="M2.957 2.204v.027c-.037-.008-.074-.016-.102-.06.042.004.074.01.102.033" transform="translate(.85 .712)"/>
                                <path fill="#5A7A42" d="M16.394 2.227l-.017-.022c.033-.024.07-.034.125-.038-.038.036-.072.05-.108.06" transform="translate(.85 .712)"/>
                            </g>
                        </g>
                    </g>
                </g>
                <path fill="#FFF" d="M16-5.818c.402 0 .727.325.727.727v42.182c0 .402-.325.727-.727.727-.402 0-.727-.325-.727-.727V-5.091c0-.402.325-.727.727-.727z" transform="translate(-362 -306) translate(362 306) rotate(45 16 16)"/>
            </g>
        </g>
    </g>
</svg>
