<svg xmlns="http://www.w3.org/2000/svg" width="12" height="10" viewBox="0 0 12 10">
    <g fill="none" fill-rule="evenodd">
        <g fill="#FFF">
            <g>
                <path d="M6.652 8.916c0 .447-.353.809-.788.809-.436 0-.789-.362-.789-.809 0-.446.353-.807.789-.807.435 0 .788.361.788.807zM8.884 5.367c.29.346.549.366.885.07.338-.296.357-.562.069-.907-2.095-2.504-5.874-2.504-7.968 0-.289.345-.27.611.068.907.337.296.596.276.885-.07 1.593-1.905 4.468-1.905 6.061 0z" transform="translate(-551 -182) translate(551 182)"/>
                <path d="M10.552 3.502c.29.345.549.366.885.07.338-.297.357-.562.069-.908C8.535-.888 3.173-.888.202 2.664c-.29.346-.269.611.068.907.337.297.596.276.885-.07 2.47-2.953 6.928-2.953 9.397 0zM7.216 7.233c.29.345.548.366.885.07.338-.296.357-.562.069-.908-1.218-1.455-3.415-1.455-4.632 0-.289.346-.269.612.068.908.337.296.596.275.885-.07.717-.856 2.01-.856 2.725 0z" transform="translate(-551 -182) translate(551 182)"/>
            </g>
        </g>
    </g>
</svg>
