<svg xmlns="http://www.w3.org/2000/svg" width="34" height="34" viewBox="0 0 34 34">
    <g fill="none" fill-rule="evenodd">
        <g>
            <g>
                <path d="M0 0H32V32H0z" transform="translate(-361 -433) translate(362 434)"/>
                <g fill="#9C9C9C" stroke="#9C9C9C">
                    <path d="M24.357 26.07H7.643c-.947 0-1.713-.766-1.713-1.713V7.643c0-.946.766-1.714 1.713-1.714h16.714c.946 0 1.713.768 1.713 1.714v16.714c0 .947-.767 1.714-1.713 1.714z" transform="translate(-361 -433) translate(362 434)"/>
                    <path d="M19.936 20.2h-7.872c-1.211 0-2.193-.982-2.193-2.192v-4.016c0-1.211.982-2.193 2.193-2.193h7.872c1.211 0 2.193.982 2.193 2.193v4.016c0 1.21-.982 2.193-2.193 2.193zM14.203 11.799L14.203 20.201M17.871 20.201L17.871 11.799" transform="translate(-361 -433) translate(362 434)"/>
                    <path stroke-linecap="round" d="M9.124 5.93L9.124.39M12.562 5.93L12.562.39M16 5.93L16 .39M19.438 5.93L19.438.39M22.876 5.93L22.876.39M9.124 31.609L9.124 26.07M12.562 31.609L12.562 26.07M16 31.609L16 26.07M19.438 31.609L19.438 26.07M22.876 31.609L22.876 26.07M26.071 9.124L31.61 9.124M26.071 12.562L31.61 12.562M26.071 16L31.61 16M26.071 19.438L31.61 19.438M26.071 22.876L31.61 22.876M.39 9.124L5.93 9.124M.39 12.562L5.93 12.562M.39 16L5.93 16M.39 19.438L5.93 19.438M.39 22.876L5.93 22.876" transform="translate(-361 -433) translate(362 434)"/>
                </g>
            </g>
        </g>
    </g>
</svg>
